<svg xmlns="http://www.w3.org/2000/svg" width="650" height="650"><rect width="650" height="650" rx="30" fill="#dbb574"/><g fill="#fff"><path d="M242.694 271.706a18.1 18.1 0 1018.106 18.108 18.107 18.107 0 00-18.106-18.108zM407.306 271.706a18.1 18.1 0 1018.108 18.108 18.107 18.107 0 00-18.108-18.108zM366.327 414.601a19.367 19.367 0 01-9.726 2.623c-5.882.05-12.14-2.812-16.711-6.722a25.532 25.532 0 01-5.181-5.853 11.645 11.645 0 01-1.109-2.248l-.18-.656-.024-.18v-16.728a16.8 16.8 0 002.312-1.3l23.5-19.1a13.582 13.582 0 00-8.571-24.125h-51.279a13.582 13.582 0 00-8.566 24.125l23.5 19.1a16.162 16.162 0 002.316 1.3v16.723l-.024.18a11.393 11.393 0 01-1.98 3.951 29.385 29.385 0 01-8.951 7.968 24.7 24.7 0 01-12.25 3.566 19.365 19.365 0 01-9.73-2.623c-3.361-1.9-6.985-5.074-10.616-10.288l-13.78 9.591a49.843 49.843 0 0016.133 15.312 36.271 36.271 0 0017.994 4.8c11.029-.05 20.57-4.8 27.571-10.706a46.47 46.47 0 004.029-3.96 47.024 47.024 0 009.743 8.124 41.708 41.708 0 0021.858 6.542 36.26 36.26 0 0017.993-4.8 49.842 49.842 0 0016.131-15.316l-13.78-9.591c-3.637 5.218-7.257 8.391-10.622 10.291z"/><path d="M566.663 296.371c-12.477-26.149-30.6-52-45.656-71.612-12.488-16.231-22.768-27.953-26.039-31.626-2.894-5.681-12.742-22.977-33.6-40.429-24.6-20.666-64.784-40.921-124.342-40.847-3.918 0-7.939.106-12.025.278-4.09-.172-8.107-.278-12.025-.278-59.558-.074-99.742 20.182-124.342 40.847-20.85 17.452-30.7 34.741-33.6 40.421a608.546 608.546 0 00-41.8 53.1c-10.755 15.428-21.584 32.7-29.9 50.143C75.079 313.856 69.082 331.44 69 348.564c.041 13.8 3.5 28.666 8.542 44.11 7.595 23.116 18.969 47.422 29.576 68.357 5.3 10.46 10.415 20.059 14.755 28.15 4.332 8.074 7.914 14.706 10.012 18.911a57.894 57.894 0 0018.473 21.8 44.036 44.036 0 0025.051 8.247A37.176 37.176 0 00192 534.282c7.9-3.9 14.464-10.821 18.706-19.682 4.279-8.894 6.459-19.7 6.468-32.429v-2.287a300.857 300.857 0 004.111 3.886 218.947 218.947 0 0022.568 18.518c8.017 5.508 16.009 10.173 25.117 12.132a164.276 164.276 0 0032.721 3.581A89.8 89.8 0 00325 515.312a89.888 89.888 0 0023.31 2.689 164.349 164.349 0 0032.719-3.582c9.108-1.959 17.1-6.624 25.117-12.132a233.638 233.638 0 0026.678-22.42v2.3c.012 16.936 3.877 30.6 11.448 40.6A39.247 39.247 0 00458 534.282a37.176 37.176 0 0016.592 3.861 44.043 44.043 0 0025.051-8.247 57.9 57.9 0 0018.473-21.8c2.811-5.632 8.214-15.477 14.587-27.477 9.586-18.068 21.464-41.217 31.072-64.6a302.6 302.6 0 0012.14-34.814c3.082-11.361 5.07-22.28 5.087-32.642-.084-17.123-6.081-34.707-14.339-52.192zm-18.133 88.458c-6.882 21.01-17.785 44.471-28.108 64.817-10.349 20.419-19.994 37.527-24.834 47.184a32.756 32.756 0 01-10.325 12.395 19.037 19.037 0 01-10.673 3.738 11.884 11.884 0 01-5.377-1.23c-2.451-1.246-4.98-3.459-7.242-8.083-2.23-4.591-3.972-11.632-3.964-21.477V370.951h-25.182v72.874c-3.25 3.591-12.6 13.714-23.613 23.658a178.841 178.841 0 01-18.689 14.985c-5.988 4.131-11.666 6.779-14.526 7.278a139.139 139.139 0 01-27.686 3.075 71.4 71.4 0 01-14.936-1.377 30.658 30.658 0 01-3.017-.8l-.451-.164-4.907-2.179-4.906 2.188c-.254.1-6.07 2.328-18.4 2.337a139.111 139.111 0 01-27.694-3.08c-3.061-.524-9.283-3.524-15.743-8.115-9.816-6.828-20.637-16.772-28.768-24.9a366.223 366.223 0 01-9.9-10.272 302.66 302.66 0 01-2.414-2.639v-72.87H192v111.222c.013 13.166-3.1 21.19-6.3 25.354a14 14 0 01-4.9 4.206 11.913 11.913 0 01-5.377 1.23 19.03 19.03 0 01-10.673-3.738 32.765 32.765 0 01-10.325-12.395c-3.246-6.484-8.566-16.141-14.869-28.027-9.436-17.764-20.969-40.306-30.023-62.357a277.7 277.7 0 01-11.136-31.863c-2.73-9.944-4.217-19-4.2-26.018-.097-10.854 4.403-25.797 11.883-41.363 11.132-23.428 28.425-48.324 42.877-67.087a617.144 617.144 0 0118.428-22.8 461.212 461.212 0 015.521-6.386l1.471-1.664.475-.525 1.352-1.484.812-1.82c.484-1.057 8.9-18.321 29.745-35.036 20.9-16.706 54-33.3 106.213-33.363q5.577 0 11.451.262l.575-12.571.574 12.574q5.877-.258 11.451-.262c53.9.074 87.433 17.74 108.189 34.987a121.85 121.85 0 0121.842 23.608 86.813 86.813 0 014.722 7.492c.48.87.812 1.517 1.009 1.911l.2.4.812 1.82 1.352 1.484.2.221a580.952 580.952 0 0142.676 54.448c9.894 14.378 19.563 30.183 26.584 45.249 7.074 15.034 11.28 29.4 11.206 39.9.041 9.375-2.676 22.302-7.287 36.27z"/></g></svg>