<svg xmlns="http://www.w3.org/2000/svg" width="650" height="650" viewBox="0 0 650 650">
<rect width="650" height="650" rx="30" fill="#dbb574"/>
<g transform="translate(69 69.001)">
<path d="M173.694,202.705A18.1,18.1,0,1,0,191.8,220.813,18.107,18.107,0,0,0,173.694,202.705Z" fill="#fff"/>
<path d="M338.306,202.705a18.1,18.1,0,1,0,18.108,18.108A18.107,18.107,0,0,0,338.306,202.705Z" fill="#fff"/>
<path d="M297.327,345.6a19.367,19.367,0,0,1-9.726,2.623c-5.882.05-12.14-2.812-16.711-6.722a25.532,25.532,0,0,1-5.181-5.853A11.645,11.645,0,0,1,264.6,333.4l-.18-.656-.024-.18V315.836a16.8,16.8,0,0,0,2.312-1.3l23.5-19.1a13.582,13.582,0,0,0-8.571-24.125H230.358a13.582,13.582,0,0,0-8.566,24.125l23.5,19.1a16.162,16.162,0,0,0,2.316,1.3v16.723l-.024.18a11.393,11.393,0,0,1-1.98,3.951,29.385,29.385,0,0,1-8.951,7.968,24.7,24.7,0,0,1-12.25,3.566,19.365,19.365,0,0,1-9.73-2.623c-3.361-1.9-6.985-5.074-10.616-10.288l-13.78,9.591a49.843,49.843,0,0,0,16.133,15.312,36.271,36.271,0,0,0,17.994,4.8c11.029-.05,20.57-4.8,27.571-10.706a46.47,46.47,0,0,0,4.029-3.96,47.024,47.024,0,0,0,9.743,8.124,41.708,41.708,0,0,0,21.858,6.542,36.26,36.26,0,0,0,17.993-4.8A49.842,49.842,0,0,0,321.729,344.9l-13.78-9.591C304.312,340.527,300.692,343.7,297.327,345.6Z" fill="#fff"/>
<path d="M497.663,227.37c-12.477-26.149-30.6-52-45.656-71.612-12.488-16.231-22.768-27.953-26.039-31.626-2.894-5.681-12.742-22.977-33.6-40.429-24.6-20.666-64.784-40.921-124.342-40.847-3.918,0-7.939.106-12.025.278-4.09-.172-8.107-.278-12.025-.278-59.558-.074-99.742,20.182-124.342,40.847-20.85,17.452-30.7,34.741-33.6,40.421a608.546,608.546,0,0,0-41.8,53.1c-10.755,15.428-21.584,32.7-29.9,50.143C6.079,244.855.082,262.439,0,279.563c.041,13.8,3.5,28.666,8.542,44.11,7.595,23.116,18.969,47.422,29.576,68.357,5.3,10.46,10.415,20.059,14.755,28.15,4.332,8.074,7.914,14.706,10.012,18.911a57.894,57.894,0,0,0,18.473,21.8,44.036,44.036,0,0,0,25.051,8.247A37.176,37.176,0,0,0,123,465.281c7.9-3.9,14.464-10.821,18.706-19.682,4.279-8.894,6.459-19.7,6.468-32.429v-2.287c1.341,1.288,2.693,2.574,4.111,3.886a218.947,218.947,0,0,0,22.568,18.518c8.017,5.508,16.009,10.173,25.117,12.132A164.276,164.276,0,0,0,232.691,449,89.8,89.8,0,0,0,256,446.311,89.888,89.888,0,0,0,279.31,449a164.349,164.349,0,0,0,32.719-3.582c9.108-1.959,17.1-6.624,25.117-12.132a233.638,233.638,0,0,0,26.678-22.42v2.3c.012,16.936,3.877,30.6,11.448,40.6A39.247,39.247,0,0,0,389,465.281a37.176,37.176,0,0,0,16.592,3.861,44.043,44.043,0,0,0,25.051-8.247,57.9,57.9,0,0,0,18.473-21.8c2.811-5.632,8.214-15.477,14.587-27.477,9.586-18.068,21.464-41.217,31.072-64.6a302.6,302.6,0,0,0,12.14-34.814c3.082-11.361,5.07-22.28,5.087-32.642C511.918,262.439,505.921,244.855,497.663,227.37ZM479.53,315.828c-6.882,21.01-17.785,44.471-28.108,64.817-10.349,20.419-19.994,37.527-24.834,47.184a32.756,32.756,0,0,1-10.325,12.395,19.037,19.037,0,0,1-10.673,3.738,11.884,11.884,0,0,1-5.377-1.23c-2.451-1.246-4.98-3.459-7.242-8.083-2.23-4.591-3.972-11.632-3.964-21.477V301.95H363.825v72.874c-3.25,3.591-12.6,13.714-23.613,23.658a178.841,178.841,0,0,1-18.689,14.985c-5.988,4.131-11.666,6.779-14.526,7.278a139.139,139.139,0,0,1-27.686,3.075,71.4,71.4,0,0,1-14.936-1.377,30.658,30.658,0,0,1-3.017-.8l-.451-.164L256,419.3l-4.906,2.188c-.254.1-6.07,2.328-18.4,2.337A139.111,139.111,0,0,1,205,420.745c-3.061-.524-9.283-3.524-15.743-8.115-9.816-6.828-20.637-16.772-28.768-24.9-4.074-4.066-7.51-7.69-9.9-10.272-1.017-1.1-1.8-1.959-2.414-2.639V301.949H123V413.171c.013,13.166-3.1,21.19-6.3,25.354a14,14,0,0,1-4.9,4.206,11.913,11.913,0,0,1-5.377,1.23,19.03,19.03,0,0,1-10.673-3.738,32.765,32.765,0,0,1-10.325-12.395c-3.246-6.484-8.566-16.141-14.869-28.027-9.436-17.764-20.969-40.306-30.023-62.357a277.7,277.7,0,0,1-11.136-31.863c-2.73-9.944-4.217-19-4.2-26.018C25.1,268.709,29.6,253.766,37.08,238.2c11.132-23.428,28.425-48.324,42.877-67.087,7.226-9.386,13.738-17.28,18.428-22.8,2.344-2.755,4.23-4.926,5.521-6.386l1.471-1.664.475-.525,1.352-1.484.812-1.82h0c.484-1.057,8.9-18.321,29.745-35.036,20.9-16.706,54-33.3,106.213-33.363q5.577,0,11.451.262L256,55.726l.574,12.574q5.877-.258,11.451-.262c53.9.074,87.433,17.74,108.189,34.987a121.85,121.85,0,0,1,21.842,23.608,86.813,86.813,0,0,1,4.722,7.492c.48.87.812,1.517,1.009,1.911l.2.4h0l.812,1.82,1.352,1.484.2.221a580.952,580.952,0,0,1,42.676,54.448c9.894,14.378,19.563,30.183,26.584,45.249,7.074,15.034,11.28,29.4,11.206,39.9C486.858,288.933,484.141,301.86,479.53,315.828Z" fill="#fff"/>
</g>
</svg>
