<svg xmlns="http://www.w3.org/2000/svg" width="48" height="48" viewBox="0 0 48 48">
<rect width="48" height="48" rx="5" fill="#dbb574"/>
<g transform="translate(3.582 -35.856)">
<path d="M157.034,202.7a1.444,1.444,0,1,0,1.444,1.444A1.444,1.444,0,0,0,157.034,202.7Z" transform="translate(-143.18 -147.1)" fill="#fff"/>
<path d="M321.646,202.7a1.444,1.444,0,1,0,1.444,1.444A1.444,1.444,0,0,0,321.646,202.7Z" transform="translate(-294.663 -147.1)" fill="#fff"/>
<path d="M198.813,277.241a1.542,1.542,0,0,1-.776.209,2.133,2.133,0,0,1-1.333-.536,2.037,2.037,0,0,1-.413-.467.931.931,0,0,1-.089-.18l-.014-.052,0-.014v-1.334a1.337,1.337,0,0,0,.184-.1l1.874-1.523a1.083,1.083,0,0,0-.684-1.924h-4.09a1.083,1.083,0,0,0-.683,1.924l1.874,1.523a1.281,1.281,0,0,0,.185.1V276.2l0,.014a.91.91,0,0,1-.158.315,2.344,2.344,0,0,1-.714.635,1.966,1.966,0,0,1-.977.284,1.542,1.542,0,0,1-.776-.209,2.644,2.644,0,0,1-.847-.821l-1.1.765a3.973,3.973,0,0,0,1.287,1.221,2.892,2.892,0,0,0,1.435.383,3.459,3.459,0,0,0,2.2-.854,3.713,3.713,0,0,0,.321-.316,3.749,3.749,0,0,0,.777.648,3.328,3.328,0,0,0,1.743.522,2.891,2.891,0,0,0,1.435-.383,3.97,3.97,0,0,0,1.287-1.221l-1.1-.765A2.647,2.647,0,0,1,198.813,277.241Z" transform="translate(-175.099 -210.239)" fill="#fff"/>
<path d="M39.693,57.572a33.721,33.721,0,0,0-3.641-5.712c-1-1.295-1.816-2.23-2.077-2.522a10.786,10.786,0,0,0-2.68-3.225,15.006,15.006,0,0,0-9.917-3.258c-.313,0-.633.008-.959.022-.326-.014-.647-.022-.959-.022a15.006,15.006,0,0,0-9.917,3.258,10.8,10.8,0,0,0-2.68,3.224,48.544,48.544,0,0,0-3.334,4.235,29.022,29.022,0,0,0-2.385,4A10.1,10.1,0,0,0,0,61.735a11.734,11.734,0,0,0,.681,3.518A40.676,40.676,0,0,0,3.04,70.705c.423.834.831,1.6,1.177,2.245s.631,1.173.8,1.508A4.617,4.617,0,0,0,6.489,76.2a3.512,3.512,0,0,0,2,.658,2.966,2.966,0,0,0,1.323-.308,3.319,3.319,0,0,0,1.492-1.57,5.936,5.936,0,0,0,.516-2.586v-.182c.107.1.215.205.328.31A17.465,17.465,0,0,0,13.946,74a5.69,5.69,0,0,0,2,.968,13.107,13.107,0,0,0,2.61.286,7.165,7.165,0,0,0,1.859-.215,7.171,7.171,0,0,0,1.859.215,13.11,13.11,0,0,0,2.61-.286,5.69,5.69,0,0,0,2-.968,18.638,18.638,0,0,0,2.128-1.788v.184a5.271,5.271,0,0,0,.913,3.238,3.131,3.131,0,0,0,1.095.918,2.966,2.966,0,0,0,1.323.308,3.513,3.513,0,0,0,2-.658,4.618,4.618,0,0,0,1.473-1.739c.224-.449.655-1.234,1.163-2.192.765-1.441,1.712-3.287,2.478-5.152a24.138,24.138,0,0,0,.968-2.777,10.125,10.125,0,0,0,.406-2.6A10.105,10.105,0,0,0,39.693,57.572Zm-1.446,7.055A38.832,38.832,0,0,1,36,69.8c-.825,1.629-1.595,2.993-1.981,3.763a2.612,2.612,0,0,1-.823.989,1.518,1.518,0,0,1-.851.3.947.947,0,0,1-.429-.1,1.309,1.309,0,0,1-.578-.645,3.963,3.963,0,0,1-.316-1.713V63.521H29.018v5.812c-.259.286-1.005,1.094-1.883,1.887a14.251,14.251,0,0,1-1.491,1.2A3.674,3.674,0,0,1,24.486,73a11.1,11.1,0,0,1-2.208.245,5.7,5.7,0,0,1-1.191-.11,2.431,2.431,0,0,1-.241-.063l-.036-.013-.391-.175-.391.175a4.389,4.389,0,0,1-1.468.186A11.1,11.1,0,0,1,16.351,73a3.915,3.915,0,0,1-1.256-.647A18.471,18.471,0,0,1,12.8,70.362c-.325-.324-.6-.613-.79-.819-.081-.088-.144-.156-.193-.21V63.521H9.81v8.871a3.334,3.334,0,0,1-.5,2.022,1.116,1.116,0,0,1-.391.335.949.949,0,0,1-.429.1,1.518,1.518,0,0,1-.851-.3,2.614,2.614,0,0,1-.824-.989c-.259-.517-.683-1.287-1.186-2.235-.753-1.417-1.672-3.215-2.395-4.973a22.147,22.147,0,0,1-.888-2.541,8.189,8.189,0,0,1-.335-2.075,8.238,8.238,0,0,1,.949-3.3,31.807,31.807,0,0,1,3.42-5.351c.576-.749,1.1-1.378,1.47-1.818.187-.22.337-.393.44-.509l.117-.133.038-.042.108-.118.065-.145h0a8.79,8.79,0,0,1,2.372-2.794,13.077,13.077,0,0,1,8.471-2.661q.445,0,.913.021l.046-1,.046,1q.469-.021.913-.021a12.985,12.985,0,0,1,8.629,2.791,9.718,9.718,0,0,1,1.742,1.883,6.917,6.917,0,0,1,.377.6c.038.069.065.121.08.152l.016.032h0l.065.145.108.118.016.018a46.348,46.348,0,0,1,3.4,4.343,25.954,25.954,0,0,1,2.12,3.609,8.054,8.054,0,0,1,.894,3.183A9.9,9.9,0,0,1,38.247,64.628Z" transform="translate(0 0)" fill="#fff"/>
</g>
</svg>
